STARTFONT 2.1
FONT -FontForge-Josefin Sans-Bold-R-Normal-Sans--10-100-75-75-P-49-ISO10646-1
SIZE 10 75 75
FONTBOUNDINGBOX 9 10 0 -2
COMMENT "Generated by fontforge, http://fontforge.sourceforge.net"
COMMENT "Copyright 2010 The Josefin Sans Project Authors (https://github.com/ThomasJockin/JosefinSansFont-master), with Reserved Font Name "Josefin Sans"."
STARTPROPERTIES 36
FOUNDRY "FontForge"
FAMILY_NAME "Josefin Sans"
WEIGHT_NAME "Bold"
SLANT "R"
SETWIDTH_NAME "Normal"
ADD_STYLE_NAME "Sans"
PIXEL_SIZE 10
POINT_SIZE 100
RESOLUTION_X 75
RESOLUTION_Y 75
SPACING "P"
AVERAGE_WIDTH 49
CHARSET_REGISTRY "ISO10646"
CHARSET_ENCODING "1"
FONTNAME_REGISTRY ""
CHARSET_COLLECTIONS "ISO10646-1"
FONT_NAME "JosefinSans-Bold"
FACE_NAME "Josefin Sans Bold"
COPYRIGHT "Copyright 2010 The Josefin Sans Project Authors (https://github.com/ThomasJockin/JosefinSansFont-master), with Reserved Font Name "Josefin Sans"."
FONT_VERSION "2.001"
FONT_ASCENT 8
FONT_DESCENT 2
UNDERLINE_POSITION -1
UNDERLINE_THICKNESS 1
RAW_ASCENT 750
RAW_DESCENT 250
NORM_SPACE 3
RELATIVE_WEIGHT 70
RELATIVE_SETWIDTH 50
SUPERSCRIPT_X 0
SUPERSCRIPT_Y 3
SUPERSCRIPT_SIZE 6
SUBSCRIPT_X 0
SUBSCRIPT_Y 0
SUBSCRIPT_SIZE 6
AVG_UPPERCASE_WIDTH 90
ENDPROPERTIES
CHARS 15
STARTCHAR space
ENCODING 32
SWIDTH 325 0
DWIDTH 3 0
BBX 1 1 0 0
BITMAP
00
ENDCHAR
STARTCHAR parenleft
ENCODING 40
SWIDTH 408 0
DWIDTH 4 0
BBX 3 10 1 -2
BITMAP
60
40
C0
80
80
80
80
C0
40
60
ENDCHAR
STARTCHAR parenright
ENCODING 41
SWIDTH 408 0
DWIDTH 4 0
BBX 3 10 0 -2
BITMAP
C0
40
60
20
20
20
20
60
40
C0
ENDCHAR
STARTCHAR comma
ENCODING 44
SWIDTH 205 0
DWIDTH 2 0
BBX 2 2 0 -1
BITMAP
40
80
ENDCHAR
STARTCHAR zero
ENCODING 48
SWIDTH 628 0
DWIDTH 6 0
BBX 6 7 0 0
BITMAP
30
78
CC
CC
CC
6C
38
ENDCHAR
STARTCHAR one
ENCODING 49
SWIDTH 344 0
DWIDTH 3 0
BBX 2 7 0 0
BITMAP
C0
C0
40
40
40
40
40
ENDCHAR
STARTCHAR two
ENCODING 50
SWIDTH 583 0
DWIDTH 6 0
BBX 5 7 0 0
BITMAP
30
78
C8
48
18
30
78
ENDCHAR
STARTCHAR three
ENCODING 51
SWIDTH 527 0
DWIDTH 5 0
BBX 5 7 0 0
BITMAP
78
70
20
70
18
58
F0
ENDCHAR
STARTCHAR four
ENCODING 52
SWIDTH 553 0
DWIDTH 6 0
BBX 5 7 0 0
BITMAP
08
10
10
30
78
F8
10
ENDCHAR
STARTCHAR five
ENCODING 53
SWIDTH 518 0
DWIDTH 5 0
BBX 5 7 0 0
BITMAP
70
70
60
70
18
58
F0
ENDCHAR
STARTCHAR six
ENCODING 54
SWIDTH 561 0
DWIDTH 6 0
BBX 5 7 0 0
BITMAP
10
30
40
F8
C8
48
78
ENDCHAR
STARTCHAR seven
ENCODING 55
SWIDTH 503 0
DWIDTH 5 0
BBX 5 7 0 0
BITMAP
F8
F0
10
30
20
60
60
ENDCHAR
STARTCHAR eight
ENCODING 56
SWIDTH 532 0
DWIDTH 5 0
BBX 5 7 0 0
BITMAP
30
78
70
78
C8
D8
70
ENDCHAR
STARTCHAR nine
ENCODING 57
SWIDTH 546 0
DWIDTH 5 0
BBX 5 7 0 0
BITMAP
30
78
C8
D8
78
30
60
ENDCHAR
STARTCHAR M
ENCODING 77
SWIDTH 948 0
DWIDTH 9 0
BBX 8 8 1 0
BITMAP
81
81
83
C7
E7
BB
9B
93
ENDCHAR
ENDFONT
