STARTFONT 2.1
FONT -FontForge-Josefin Sans Thin-Thin-R-Normal-Sans-50-480-75-75--239--
SIZE 48 75 75
FONTBOUNDINGBOX 39 45 0 -8
COMMENT "Generated by fontforge, http://fontforge.sourceforge.net"
COMMENT "Copyright 2010 The Josefin Sans Project Authors (https://github.com/ThomasJockin/JosefinSansFont-master), with Reserved Font Name "Josefin Sans"."
STARTPROPERTIES 36
FOUNDRY "FontForge"
FAMILY_NAME "Josefin Sans Thin"
WEIGHT_NAME "Thin"
SLANT "R"
SETWIDTH_NAME "Normal"
ADD_STYLE_NAME "Sans"
PIXEL_SIZE 50
POINT_SIZE 480
RESOLUTION_X 75
RESOLUTION_Y 75
SPACING ""
AVERAGE_WIDTH 0
CHARSET_REGISTRY ""
CHARSET_ENCODING ""
FONTNAME_REGISTRY ""
CHARSET_COLLECTIONS "ISO10646-1"
FONT_NAME "JosefinSans-Thin"
FACE_NAME "Josefin Sans Thin"
COPYRIGHT "Copyright 2010 The Josefin Sans Project Authors (https://github.com/ThomasJockin/JosefinSansFont-master), with Reserved Font Name "Josefin Sans"."
FONT_VERSION "2.001"
FONT_ASCENT 38
FONT_DESCENT 12
UNDERLINE_POSITION -6
UNDERLINE_THICKNESS 3
RAW_ASCENT 750
RAW_DESCENT 250
NORM_SPACE 15
RELATIVE_WEIGHT 10
RELATIVE_SETWIDTH 50
SUPERSCRIPT_X 0
SUPERSCRIPT_Y 17
SUPERSCRIPT_SIZE 30
SUBSCRIPT_X 0
SUBSCRIPT_Y 3
SUBSCRIPT_SIZE 30
AVG_UPPERCASE_WIDTH 450
ENDPROPERTIES
CHARS 15
STARTCHAR space
ENCODING 32
SWIDTH 301 0
DWIDTH 15 0
BBX 1 1 0 0
BITMAP
00
ENDCHAR
STARTCHAR parenleft
ENCODING 40
SWIDTH 395 0
DWIDTH 20 0
BBX 9 45 7 -8
BITMAP
0080
0100
0300
0600
0400
0C00
0800
1800
1000
3000
2000
2000
2000
4000
4000
4000
4000
8000
8000
8000
8000
8000
8000
8000
8000
8000
8000
4000
4000
4000
4000
4000
2000
2000
2000
1000
1000
1800
0800
0C00
0400
0200
0300
0100
0080
ENDCHAR
STARTCHAR parenright
ENCODING 41
SWIDTH 400 0
DWIDTH 20 0
BBX 9 45 5 -8
BITMAP
C000
4000
2000
3000
1000
0800
0800
0400
0400
0200
0200
0200
0100
0100
0100
0100
0080
0080
0080
0080
0080
0080
0080
0080
0080
0080
0080
0080
0080
0100
0100
0100
0100
0200
0200
0200
0400
0400
0800
0800
1000
3000
2000
4000
8000
ENDCHAR
STARTCHAR comma
ENCODING 44
SWIDTH 184 0
DWIDTH 9 0
BBX 6 10 1 -6
BITMAP
0C
08
10
10
30
20
20
40
40
C0
ENDCHAR
STARTCHAR zero
ENCODING 48
SWIDTH 617 0
DWIDTH 31 0
BBX 27 33 2 0
BITMAP
001F0000
00E0E000
03001800
04000C00
08000200
10000300
30000100
20000080
40000080
40000040
40000040
80000040
80000020
80000020
80000020
80000020
80000020
80000020
80000020
80000020
80000020
80000020
40000040
40000040
40000040
20000080
20000080
10000100
18000200
0C000600
06000800
01803000
007FC000
ENDCHAR
STARTCHAR one
ENCODING 49
SWIDTH 308 0
DWIDTH 15 0
BBX 7 33 3 0
BITMAP
FE
06
06
06
06
06
06
06
06
06
06
06
06
06
06
06
06
06
06
06
06
06
06
06
06
06
06
06
06
06
06
06
06
ENDCHAR
STARTCHAR two
ENCODING 50
SWIDTH 496 0
DWIDTH 25 0
BBX 21 33 2 0
BITMAP
03F000
0C0C00
180300
200180
200080
400040
400040
400040
C00040
800040
800040
400040
400040
400040
200080
200080
000100
000100
000200
000400
000400
000800
001000
002000
004000
008000
010000
020000
040000
080000
100000
200000
7FFFF8
ENDCHAR
STARTCHAR three
ENCODING 51
SWIDTH 518 0
DWIDTH 26 0
BBX 18 33 4 0
BITMAP
FFFF00
000200
000200
000400
000800
001000
002000
006000
004000
008000
010000
020000
040000
07F800
180E00
000300
000180
000080
000040
000040
000040
000040
000040
000040
000040
000040
000040
000080
000080
800100
800200
600C00
1FF000
ENDCHAR
STARTCHAR four
ENCODING 52
SWIDTH 506 0
DWIDTH 25 0
BBX 23 33 1 0
BITMAP
000020
000060
000060
0000A0
000120
000220
000220
000420
000820
001020
003020
002020
004020
008020
018020
010020
020020
040020
080020
080020
100020
200020
400020
FFFFFE
000020
000020
000020
000020
000020
000020
000020
000020
000020
ENDCHAR
STARTCHAR five
ENCODING 53
SWIDTH 543 0
DWIDTH 27 0
BBX 17 33 6 0
BITMAP
7FFE00
400000
400000
400000
400000
400000
400000
400000
400000
400000
400000
400000
400000
4FC000
703000
400800
000400
000200
000100
000100
000080
000080
000080
000080
000080
000080
000100
000100
000200
000600
800C00
401800
3FE000
ENDCHAR
STARTCHAR six
ENCODING 54
SWIDTH 520 0
DWIDTH 26 0
BBX 21 32 2 0
BITMAP
0000C0
000100
000600
000C00
001000
002000
004000
008000
010000
020000
040000
080000
18FC00
130300
2C0080
300040
600020
600010
400010
400008
400008
800008
800008
800008
400008
400018
400010
200030
100020
080040
060180
03FE00
ENDCHAR
STARTCHAR seven
ENCODING 55
SWIDTH 476 0
DWIDTH 24 0
BBX 20 33 2 0
BITMAP
FFFFF0
000010
000030
000020
000060
000040
000040
000080
000080
000100
000100
000300
000200
000600
000400
000400
000800
000800
001000
001000
002000
002000
006000
004000
00C000
008000
008000
010000
010000
020000
020000
060000
040000
ENDCHAR
STARTCHAR eight
ENCODING 56
SWIDTH 508 0
DWIDTH 25 0
BBX 21 33 2 0
BITMAP
00F800
030600
040100
080080
080080
180040
100040
100040
100040
080080
080080
040100
030600
00F800
070700
0C0080
100040
200020
200010
400010
400008
400008
800008
800008
800008
400008
400010
400010
200020
100060
0800C0
040180
03FE00
ENDCHAR
STARTCHAR nine
ENCODING 57
SWIDTH 524 0
DWIDTH 26 0
BBX 21 33 2 0
BITMAP
002000
03DE00
060180
080040
100020
200030
600010
400018
400008
400008
800008
800008
400008
400008
400008
600010
200010
100030
180060
0400A0
03CF40
006080
000180
000100
000200
000400
000800
001000
006000
00C000
010000
060000
0C0000
ENDCHAR
STARTCHAR M
ENCODING 77
SWIDTH 894 0
DWIDTH 45 0
BBX 33 36 6 0
BITMAP
8000000080
8000000080
C000000180
C000000380
A000000280
B000000480
9000000C80
8800000880
8400001080
8400002080
8200002080
8100004080
8180008080
8080018080
8040010080
8020020080
8020040080
8010040080
8008080080
800C100080
8004100080
8002200080
8001400080
8001800080
8000800080
8000000080
8000000080
8000000080
8000000080
8000000080
8000000080
8000000080
8000000080
8000000080
8000000080
8000000080
ENDCHAR
ENDFONT
